<svg enable-background="new 0 0 499.161 69.728" version="1.1" viewBox="0 0 499.161 69.728" x="0px" xml:space="preserve" xmlns="http://www.w3.org/2000/svg" xmlns:xlink="http://www.w3.org/1999/xlink" y="0px">
<g>
<path d="M99.169,62.648l0.039-0.016c3.544-1.47,4.054-2.386,3.886-4.744v-9.533
		c2.7,6.853,5.254,11.669,10.486,11.669c0.715,0,1.474-0.088,2.291-0.274l2.041-0.458l-1.403-1.551
		c-0.897-0.992-1.331-1.756-1.833-2.646c-0.207-0.363-0.421-0.738-0.679-1.154c-1.227-1.99-4.137-2.66-6.497-1.606
		c-1.073-2.127-2.15-4.894-3.447-8.313l-0.283-0.648c-0.223-0.51-0.45-1.026-0.677-1.54v-0.086h-0.038
		c-0.805-1.804-1.663-3.619-2.688-5.315c-0.928-1.542-1.876-2.872-2.895-4.066c-2.73-3.204-6.343-5.198-10.74-5.923
		c-3.042-0.501-5.196-0.605-7.919-0.742c-0.565-0.026-1.158-0.055-1.784-0.09c-1.235-0.066-3.783-0.274-6.249-0.476
		c-1.663-0.134-3.362-0.277-4.708-0.377c0.091-0.377,0.146-0.766,0.146-1.173c0-0.542-0.051-1.03-0.146-1.46h17.49
		c4.511,0,7.776-1.992,9.717-5.912c4.485-0.044,7.724-2.076,9.642-6.042h0.622c4.668,0,8.007-2.126,9.919-6.326l0.788-1.73H54.98
		c-3.895,0-7.212,2.54-8.455,6.468L46.49,8.72c-1.007-2.807-2.855-5.191-5.215-6.595c-3.29-1.953-7.028-2.613-10.007-1.758
		c-0.982,0.286-1.964,0.731-2.759,1.254c-0.686,0.455-1.646,1.177-2.338,2.067c-0.759,0.969-1.488,2.146-2.029,3.243
		c-0.337,0.282-0.604,0.569-0.787,0.846l-0.713,1.332l-0.036,0.074c-0.846,1.918-1.879,3.246-2.686,4.186
		c-0.799,0.927-0.839,1.813-0.729,2.391c0.114,0.632,0.455,1.147,0.816,1.538l-0.021,0.035c-0.238,0.407-0.359,0.874-0.359,1.347
		c0,1.566,1.359,2.747,3.034,2.747c1.217,0,2.213-0.57,3.262-1.264c0.429-0.284,1.561-1.034,1.931-1.076
		c0.468,0,0.894,0.428,0.894,0.892c0,1.283-1.649,1.972-2.833,2.059l-2.411,0.255c-1.729,0.166-2.549,1.083-2.549,1.902
		c0,0.827,0.392,1.286,0.666,1.563l0.181,0.183l0.612,0.542l-2.555,4.107c-1.821-1.684-3.95-2.701-5.833-2.761
		c-1.224-0.04-2.28,0.329-3.056,1.062c-0.225,0.21-0.421,0.455-0.587,0.724h-0.048c-2.015,0-3.639,1.078-4.438,2.288
		c-0.859,1.328-0.548,3.62,0.548,5.37L0,38.945v30.782h118.183v-6.137H96.669L99.169,62.648z M111.909,55.22
		c0.234,0.379,0.44,0.736,0.635,1.077c0.237,0.425,0.472,0.833,0.746,1.263c-1.854-0.115-3.261-1.142-4.562-3.085
		C109.926,54.058,111.378,54.354,111.909,55.22 M86.332,28.855c3.807,0.625,6.928,2.34,9.271,5.095
		c0.507,0.586,0.99,1.215,1.462,1.897c-6.41-0.842-8.641-1.778-12.228-7.216C85.313,28.696,85.808,28.768,86.332,28.855
		 M83.562,19.683H71.531c1.037-0.905,1.899-2.065,2.594-3.466h16.349C88.934,18.57,86.705,19.683,83.562,19.683 M93.141,13.771
		H81.11c1.062-0.932,1.945-2.135,2.66-3.6h16.361C98.592,12.619,96.34,13.771,93.141,13.771 M93.958,4.56h16.296
		c-1.53,2.153-3.701,3.168-6.71,3.168h-12.03C92.47,6.889,93.288,5.831,93.958,4.56 M28.102,5.19
		c0.381-0.491,1.012-1.034,1.758-1.533c0.584-0.384,1.349-0.727,2.089-0.941c1.184-0.339,2.539-0.362,3.943-0.093l-4.32,2.663
		c-0.539-0.055-1.065-0.081-1.58-0.081c-0.732,0-1.407,0.059-2.026,0.157C28.014,5.303,28.057,5.242,28.102,5.19 M23.367,23.963
		l2.106,0.069c2.571-0.092,5.186-1.147,5.479-3.819c0-1.81-1.286-3.572-3.1-3.572c-0.967,0-2.06,0.671-3.288,1.483
		c-0.793,0.527-1.429,0.945-1.905,0.945c-0.325,0-0.586-0.215-0.586-0.392c0-0.029,0.005-0.062,0.016-0.09l1.349-1.799l-1.169-0.778
		c-0.245-0.165-0.63-0.466-0.673-0.699c-0.023-0.107,0.135-0.298,0.186-0.357c0.481-0.562,1.034-1.246,1.591-2.091
		c0.344-0.479,0.542-0.742,1.125-0.742c0.563,0,1.026,0.451,1.026,1.012c0,0.371,0.405,0.665,0.911,0.665s0.733-0.357,1.044-0.665
		c0,0,1.199-1.1,0.566-1.617c-0.726-0.596-3.627,0.616-2.821-2.052l0.201-0.379c0.312-0.409,1.701-1.438,4.569-1.438
		c0.543,0,1.122,0.039,1.708,0.113l0.43,0.053l6.093-3.753c0.056,0.127,0.074,0.218,0.074,0.218v0l0.003,0.034
		c0.319,1.845-0.842,4.039-2.705,5.106l-0.741,0.428l0.48,2.743c-1.564,0.482-2.655,1.732-2.655,3.243
		c0,0.516,0.12,1.133,0.274,1.914c0.168,0.861,0.36,1.841,0.411,2.834c0,2.858-3.946,4.751-7.285,4.642l-0.087-0.003
		c-0.14-0.003-2.266-0.174-2.786-0.583c-0.101-0.077-0.18-0.246-0.154-0.372C23.089,24.095,23.226,23.958,23.367,23.963
		 M7.954,33.234c0.477-0.731,1.584-1.367,2.959-1.13l1.043,0.183l0.331-1.005c0.087-0.268,0.205-0.47,0.37-0.621
		c0.292-0.278,0.729-0.406,1.288-0.393c1.476,0.046,3.321,1.075,4.816,2.68c0.545,0.583,1.026,1.263,1.461,1.946
		c0.084,0.146,0.18,0.301,0.265,0.437c0.121,0.193,0.224,0.349,0.25,0.384c0.05,0.092,0.786,1.208,0.739,1.277
		c0.505-0.71,1.017-1.419,1.518-2.129c0.017-0.02-0.007-0.089-0.049-0.179c-0.112-0.244-0.379-0.664-0.542-0.916
		c-0.039-0.063-0.08-0.122-0.113-0.186c-0.007-0.001-0.01-0.009-0.014-0.011c-0.014-0.026-0.081-0.133-0.168-0.275
		c-0.172-0.261-0.415-0.644-0.52-0.85l3.196-5.104c0.79,0.167,1.471,0.193,1.795,0.193l0.076-0.001c4.5,0,9.158-2.595,9.158-6.935
		v-0.111c-0.06-1.177-0.276-2.311-0.456-3.213c-0.12-0.595-0.23-1.162-0.23-1.443c0-0.476,0.67-1.004,1.627-1.004h1.459l-0.66-3.77
		c2.047-1.509,3.308-3.957,3.243-6.305C43,6.447,44.554,9.378,44.84,12.497c0.087,0.906-0.094,2.175-0.389,3.51l-0.157,0.557
		l0.026,0.007c-0.517,2.174-1.291,4.413-1.697,5.473l-0.373,0.982l0.915,0.517c1.643,0.928,2.649,1.612,2.649,3.77
		c0,2.482-2.232,4.376-4.39,4.78l-2.946,0.553l2.492,1.665c0.803,0.533,1.28,1.402,1.28,2.323c0,1.555-1.327,2.824-2.955,2.824
		h-0.942l-0.262,0.862c-0.917,2.98-1.911,4.439-5.106,4.75c0.147-0.908,0.25-1.776,0.25-3.013c0-0.285-0.029-1.101-0.041-1.358
		l-0.14-2.779l-1.96,1.987c-0.663,0.67-1.835,1.207-3.129,1.462v-2.423l-13.983-3.627l-4.976,1.287
		C7.897,35.497,7.676,33.663,7.954,33.234 M3.928,63.591l10.055-2.617l10.05,2.617H3.928z M25.519,61.453l-11.536-3l-11.531,3
		V40.835l11.531-2.994l11.536,2.994V61.453z M30.882,57.441c-1.04,1.498-1.168,3.563-0.383,6.15h-2.533V43.843
		c0.909-0.14,1.884-0.397,2.792-0.812c-0.051,0.861-0.173,1.544-0.332,2.455c-0.037,0.21-0.074,0.429-0.114,0.665l-0.246,1.423h1.45
		c2.171,0,3.783-0.335,5.023-0.977v8.245c0,0.21-0.159,0.382-0.361,0.382h-0.366C33.656,55.224,31.861,56.029,30.882,57.441
		 M57.458,57.974c-0.888,1.013-1.747,2.782-1.192,5.617H41.29c1.609-0.159,2.778-0.534,3.583-1.375
		c0.981-1.019,1.071-2.414,1.038-3.408c0.028-0.087,0.192-0.424,0.926-0.751l1.295-0.593l-0.776-1.188
		c-1.28-1.965-0.718-6.261-0.229-8.597h0.119c5.078,0,8.361-1.056,11.828-2.166c0.902-0.291,1.84-0.589,2.821-0.88l0.028-0.008
		c0.024-0.006,1.036-0.327,2.412-0.651l4.885,8.045l0.044,0.069c0.483,0.689,0.545,1.149-0.336,2.18l-2.453,2.639l-4.009-0.745
		l-0.036-0.004C60.62,55.881,58.661,56.592,57.458,57.974 M58.777,63.591c-0.44-1.728-0.265-3.111,0.526-4.016
		c0.755-0.859,1.914-1.124,2.733-1.007l4.65,0.867l0.119,0.018h0.644l3.288-3.542l0.033-0.03c0.56-0.655,2.267-2.633,0.523-5.156
		l-4.389-7.233c0.721-0.103,1.454-0.17,2.133-0.17h0.029c0.021,0.004,2.224-0.034,4.583,1.342c0.318,0.683,0.764,1.584,1.256,2.587
		c0.925,1.867,2.072,4.193,2.391,5.132c0.102,0.295,0.414,1.193-0.688,2.329l-8.419,8.88H58.777z M87.471,63.591H71.56l6.816-7.193
		c1.379-1.422,1.817-3.13,1.238-4.808c-0.329-0.968-1.231-2.827-2.169-4.725c2.705,1.25,6.812,2.383,15.159,3.056
		c1.004,0.081,1.271,0.425,1.474,1.342l0.363,3.597l-4.365,0.973c-1.462,0.291-2.605,1.251-3.147,2.638
		C86.332,60.009,86.533,61.819,87.471,63.591 M89.212,59.362c0.241-0.618,0.708-1.01,1.352-1.135l6.534-1.455l-0.593-5.824
		l-0.017-0.125c-0.165-0.768-0.647-3.09-3.681-3.339c-11.683-0.943-14.394-2.672-17.231-4.505c-0.004-0.009-0.007-0.015-0.011-0.024
		l-0.017,0.008l-0.183-0.118c-3.031-1.96-6.043-1.979-6.341-1.972c-3.308,0.001-7.492,1.315-7.834,1.421
		c-1.01,0.296-1.953,0.595-2.867,0.893c-3.658,1.174-6.816,2.194-12.122,2.036l-0.975-0.03l-0.246,0.938
		c-0.19,0.72-1.678,6.581-0.242,10.347c-1.287,1.012-1.287,2.182-1.279,2.336c0.055,1.294-0.25,1.607-0.353,1.709
		c-0.611,0.637-2.648,0.72-4.359,0.72h-0.021h-0.624l-0.366,0.507c-1.06,1.451-3.338,1.792-4.8,1.42
		c-0.646-1.953-0.664-3.446-0.04-4.338c0.733-1.049,2.283-1.167,2.917-1.167h0.366c1.554,0,2.811-1.266,2.811-2.823V44.345
		c0.477-0.729,0.854-1.571,1.184-2.514c2.564-0.41,4.525-2.583,4.525-5.198c0-1.003-0.297-1.969-0.832-2.797
		c2.371-1.142,4.396-3.472,4.396-6.524c0-3.049-1.535-4.454-2.994-5.37c0.411-1.167,1.087-3.23,1.55-5.305L48.871,9.3
		c0.916-2.879,3.313-4.741,6.109-4.741h36.116c-1.527,2.15-3.697,3.168-6.709,3.168h-21.85l-1.144,2.443h19.586
		c-1.54,2.448-3.792,3.6-6.992,3.6H59.784l-1.143,2.446h12.675c-1.535,2.354-3.767,3.466-6.908,3.466h-7.738l-1.143,2.442h8.116
		c0.073,0.099,0.277,0.469,0.277,1.46c0,1.57-1.322,2.847-2.942,2.847c-0.56,0-1.036-0.123-1.872-0.469
		c-0.359-0.149-0.719-0.302-1.075-0.457l-1.883,1.691c0.349,0.149,0.705,0.301,1.059,0.448c1.624,0.708,2.537,1.077,3.77,1.077
		c1.492,0,2.837-0.62,3.793-1.605c1.393,0.089,3.635,0.275,5.808,0.452c2.595,0.215,5.046,0.413,6.317,0.482
		c0.636,0.035,1.229,0.064,1.796,0.092c1.077,0.051,2.063,0.101,3.049,0.172c4.929,8,7.458,9.05,17.006,10.196
		c0.685,1.23,1.304,2.531,1.895,3.846v15.575l0.004,0.088c0.055,0.716,0.055,0.96-0.044,1.088c-0.329,0.436-1.805,1.048-2.312,1.26
		l-8.05,3.032C89.171,61.958,88.788,60.45,89.212,59.362" fill="#C21B17"></path>
<polygon fill="#C21B17" points="23.047,44.243 15.265,42.223 15.265,44.772 23.047,46.794 	"></polygon>
<polygon fill="#C21B17" points="4.914,46.794 12.697,44.772 12.697,42.22 4.914,44.243 	"></polygon>
<polygon fill="#C21B17" points="4.914,51.921 12.697,49.902 12.697,47.349 4.914,49.369 	"></polygon>
<polygon fill="#C21B17" points="23.047,49.369 15.265,47.35 15.265,49.902 23.047,51.921 	"></polygon>
<polygon fill="#C21B17" points="23.047,54.5 15.265,52.475 15.265,55.027 23.047,57.049 	"></polygon>
<polygon fill="#C21B17" points="4.914,57.049 12.697,55.028 12.697,52.475 4.914,54.5 	"></polygon>
<path d="M166.146,64.538c-0.46,1.142-0.964,1.976-1.516,2.5c-0.656,0.63-1.392,0.984-2.206,1.063h-6.971V56.09
		h2.245c0.866,0.131,1.536,0.493,2.008,1.083c0.472,0.59,0.827,1.215,1.063,1.871c0.289,0.762,0.459,1.614,0.512,2.559h0.59V49.435
		h-0.59c-0.105,0.893-0.302,1.72-0.591,2.48c-0.263,0.657-0.637,1.268-1.122,1.832c-0.487,0.565-1.162,0.912-2.029,1.044h-2.087
		V43.212h6.419c0.814,0.078,1.549,0.433,2.205,1.063c0.552,0.525,1.057,1.358,1.517,2.5c0.459,1.142,0.689,2.764,0.689,4.864h0.552
		v-9.768h-19.062v1.339h3.426v24.89h-3.426v1.339h19.849v-9.766h-0.787C166.836,61.775,166.605,63.396,166.146,64.538" fill="#C21B17"></path>
<path d="M144.02,42.896c-0.828-0.472-1.649-0.761-2.463-0.867c-0.813-0.104-1.404-0.157-1.771-0.157h-13.745v1.378
		h3.624v24.85h-3.624v1.34h11.303v-1.34h-3.426V56.798h5.553c0.104,0,0.367-0.019,0.788-0.059c0.419-0.038,0.912-0.13,1.477-0.275
		c0.564-0.145,1.162-0.38,1.792-0.709c0.631-0.328,1.215-0.78,1.753-1.358c0.538-0.577,0.978-1.314,1.32-2.205
		c0.34-0.893,0.511-1.971,0.511-3.229c0-1.68-0.309-2.994-0.924-3.938C145.568,44.078,144.846,43.369,144.02,42.896 M142.66,49.158
		c0,0.184-0.006,0.467-0.02,0.848c-0.013,0.38-0.059,0.807-0.137,1.28c-0.078,0.473-0.184,0.958-0.314,1.457
		c-0.131,0.5-0.315,0.952-0.551,1.358c-0.237,0.408-0.539,0.742-0.906,1.004c-0.368,0.263-0.802,0.395-1.3,0.395h-5.514V43.25h5.514
		c0.604,0.053,1.142,0.29,1.615,0.709c0.419,0.368,0.793,0.933,1.123,1.694c0.328,0.761,0.491,1.864,0.491,3.308V49.158z" fill="#C21B17"></path>
<polygon fill="#C21B17" points="213.036,43.232 216.698,43.232 216.698,68.122 213.036,68.122 213.036,69.462 224.338,69.462 
		224.338,68.122 220.873,68.122 220.873,43.232 224.338,43.232 224.338,41.893 213.036,41.893 	"></polygon>
<path d="M168.354,43.056h0.327c0,0,4.175,0.025,4.175,2.718v20.793c-0.263,0.683-0.664,1.117-1.202,1.299
		c-0.539,0.184-0.991,0.276-1.358,0.276c-0.053,0-0.112-0.005-0.177-0.021c-0.066-0.013-0.125-0.019-0.177-0.019h-0.118v1.339h7.287
		v-1.339h-0.158c-0.053,0-0.112,0.006-0.177,0.019c-0.066,0.016-0.138,0.021-0.216,0.021c-0.185,0-0.408-0.021-0.67-0.061
		c-0.263-0.038-0.519-0.11-0.769-0.216c-0.25-0.104-0.473-0.261-0.669-0.472c-0.197-0.21-0.335-0.485-0.414-0.827V47.663
		l14.336,21.779h1.3V44.746c0.157-0.367,0.373-0.656,0.649-0.866c0.275-0.21,0.565-0.367,0.867-0.472
		c0.302-0.105,0.577-0.171,0.826-0.197c0.25-0.027,0.439-0.04,0.571-0.04h0.158v-1.299h-7.443v1.299h0.196
		c0.158,0,0.388,0.013,0.689,0.04c0.302,0.026,0.617,0.092,0.946,0.197c0.328,0.105,0.629,0.262,0.905,0.472
		s0.454,0.499,0.532,0.866v16.664l-13.247-19.535l-6.643-0.003v0.003h-0.327V43.056z" fill="#C21B17"></path>
<path d="M194.25,52.1h1.036c0.169-2.128,0.931-4.534,0.931-4.535c0.677-2.138,2.368-3.923,4.709-4.124
		c1.924-0.167,3.938,0.004,5.874,0.004l-13.229,23.165v2.853h5.622h10.455h1.497V59.296h-0.996c-0.168,2.128-0.93,4.535-0.93,4.536
		c-0.927,2.924-3.236,4.109-6.197,4.109c-2.254,0-4.526,0.008-6.784,0.008l15.291-26.015h-5.286h-11.951h-0.041v1.51" fill="#C21B17"></path>
<path d="M241.653,43.317h0.325c0,0,4.154-0.102,4.154,2.577v20.689c-0.262,0.679-0.662,1.111-1.195,1.292
		c-0.536,0.183-0.987,0.275-1.352,0.275c-0.052,0-0.112-0.005-0.177-0.02c-0.066-0.013-0.125-0.02-0.176-0.02h-0.117v1.332h7.25
		v-1.332h-0.158c-0.052,0-0.111,0.007-0.176,0.02c-0.066,0.015-0.138,0.02-0.216,0.02c-0.184,0-0.406-0.02-0.666-0.06
		c-0.262-0.039-0.517-0.11-0.764-0.215c-0.25-0.104-0.471-0.261-0.667-0.47c-0.195-0.208-0.332-0.482-0.412-0.822V47.775
		l14.265,21.668h1.293V44.872c0.156-0.366,0.372-0.652,0.646-0.861c0.275-0.209,0.562-0.367,0.861-0.47
		c0.301-0.104,0.576-0.17,0.824-0.197c0.247-0.026,0.437-0.04,0.566-0.04h0.158v-1.292h-7.405v1.292h0.195
		c0.156,0,0.384,0.014,0.686,0.04c0.3,0.026,0.613,0.092,0.939,0.197c0.327,0.104,0.628,0.261,0.903,0.47
		c0.272,0.209,0.449,0.496,0.527,0.861v16.579l-13.18-19.436l-6.608-0.004v0.004h-0.325V43.317z" fill="#C21B17"></path>
<path d="M228.229,42.002v1.317h3.756v15.941v5.476c-0.026,0.723-0.129,1.381-0.31,1.976
		c-0.154,0.516-0.406,0.974-0.754,1.374c-0.349,0.401-0.846,0.602-1.492,0.602c-0.18-0.026-0.348-0.078-0.503-0.155
		c-0.129-0.052-0.246-0.136-0.348-0.252c-0.104-0.116-0.156-0.253-0.156-0.407v-0.386c0.156-0.104,0.29-0.24,0.406-0.407
		c0.117-0.167,0.2-0.343,0.252-0.523c0.077-0.206,0.128-0.426,0.154-0.658c0-0.542-0.09-0.974-0.271-1.298
		c-0.181-0.322-0.387-0.561-0.621-0.716c-0.284-0.181-0.581-0.297-0.89-0.349c-0.594,0-1.046,0.123-1.355,0.368
		c-0.31,0.244-0.543,0.51-0.697,0.793c-0.181,0.336-0.284,0.736-0.31,1.201c0,0.903,0.218,1.594,0.658,2.072
		c0.439,0.478,0.917,0.833,1.433,1.065c0.619,0.284,1.303,0.426,2.052,0.426c1.135,0,2.097-0.194,2.886-0.582
		c0.787-0.386,1.444-0.885,1.975-1.491c0.529-0.607,0.942-1.271,1.24-1.995c0.296-0.722,0.516-1.425,0.658-2.11
		c0.141-0.684,0.232-1.304,0.27-1.859c0.04-0.555,0.059-0.949,0.059-1.182v-0.983V43.319h3.765l-0.001-1.308L228.229,42.002z" fill="#C21B17"></path>
<path d="M307.459,60.153c0-0.259-0.045-0.722-0.137-1.385c-0.093-0.664-0.346-1.387-0.761-2.167
		c-0.417-0.78-1.054-1.535-1.913-2.264c-0.859-0.728-2.044-1.289-3.553-1.679l-5.19-1.327c-0.679-0.208-1.276-0.494-1.798-0.859
		c-0.441-0.312-0.858-0.708-1.249-1.191c-0.39-0.48-0.585-1.086-0.585-1.814c0.079-0.885,0.338-1.679,0.779-2.381
		c0.366-0.599,0.938-1.146,1.72-1.639c0.779-0.495,1.874-0.743,3.278-0.743c1.224,0.079,2.315,0.378,3.278,0.899
		c0.417,0.233,0.819,0.521,1.212,0.858c0.39,0.339,0.741,0.748,1.054,1.229c0.312,0.482,0.56,1.062,0.739,1.738
		c0.184,0.677,0.275,1.458,0.275,2.341h0.741v-8.041l-2.303,1.718c-0.443-0.443-0.951-0.774-1.523-0.996
		c-0.571-0.221-1.118-0.397-1.639-0.528c-0.599-0.128-1.21-0.193-1.835-0.193c-0.858,0-1.757,0.175-2.693,0.527
		c-0.936,0.351-1.79,0.872-2.559,1.561c-0.767,0.69-1.398,1.549-1.892,2.578c-0.495,1.028-0.742,2.218-0.742,3.572
		c0,1.353,0.274,2.453,0.82,3.299c0.547,0.846,1.146,1.516,1.795,2.01c0.755,0.573,1.613,0.99,2.577,1.25l5.738,1.327
		c0.989,0.26,1.751,0.645,2.284,1.151c0.533,0.507,0.937,1.035,1.208,1.581c0.275,0.547,0.438,1.041,0.491,1.483
		c0.05,0.444,0.077,0.742,0.077,0.898v0.078c0,0.885-0.144,1.646-0.431,2.283c-0.286,0.638-0.651,1.159-1.091,1.563
		c-0.445,0.403-0.933,0.723-1.466,0.956c-0.533,0.233-1.047,0.411-1.541,0.527c-0.495,0.117-0.931,0.188-1.309,0.213
		c-0.377,0.026-0.644,0.04-0.8,0.04h-0.117c-1.015,0-1.906-0.124-2.674-0.37c-0.769-0.248-1.433-0.567-1.991-0.957
		c-0.559-0.391-1.035-0.84-1.425-1.348c-0.391-0.508-0.717-1.021-0.976-1.542c-0.598-1.249-0.938-2.654-1.017-4.216h-0.74v9.056
		l2.693-1.951c0.624,0.572,1.302,1.021,2.029,1.345c0.729,0.327,1.392,0.554,1.991,0.684c0.702,0.156,1.405,0.247,2.108,0.274h0.157
		c0.208,0,0.564-0.02,1.073-0.059c0.507-0.04,1.092-0.157,1.755-0.352c0.665-0.195,1.354-0.489,2.068-0.878
		c0.717-0.391,1.368-0.931,1.953-1.621c0.586-0.689,1.073-1.548,1.464-2.576c0.39-1.028,0.586-2.284,0.586-3.767V60.153z" fill="#C21B17"></path>
<path d="M324.812,42.919c-0.827-0.473-1.648-0.762-2.461-0.867c-0.814-0.105-1.405-0.157-1.772-0.157h-13.744v1.377
		h3.622v24.851h-3.622v1.34h11.303v-1.34h-3.428V56.821h5.554c0.104,0,0.368-0.02,0.788-0.059c0.419-0.039,0.912-0.13,1.476-0.275
		c0.566-0.145,1.163-0.38,1.792-0.709c0.63-0.328,1.215-0.78,1.755-1.358c0.537-0.577,0.977-1.313,1.318-2.205
		c0.341-0.893,0.51-1.971,0.51-3.229c0-1.681-0.308-2.994-0.923-3.939C326.36,44.101,325.639,43.392,324.812,42.919 M323.454,49.181
		c0,0.185-0.008,0.467-0.02,0.847c-0.015,0.38-0.06,0.808-0.139,1.279c-0.079,0.474-0.183,0.959-0.315,1.458
		c-0.132,0.499-0.314,0.951-0.552,1.358c-0.235,0.407-0.537,0.741-0.904,1.004c-0.368,0.263-0.802,0.394-1.301,0.394h-5.514v-12.25
		h5.514c0.604,0.054,1.143,0.291,1.616,0.709c0.417,0.368,0.793,0.933,1.121,1.694c0.328,0.762,0.493,1.864,0.493,3.309V49.181z" fill="#C21B17"></path>
<polygon fill="#C21B17" points="267.425,43.234 271.086,43.234 271.086,68.124 267.425,68.124 267.425,69.462 278.728,69.462 
		278.728,68.124 275.261,68.124 275.261,43.234 278.728,43.234 278.728,41.895 267.425,41.895 	"></polygon>
<path d="M273.29,40.216c1.516-0.684,3.054-1.321,4.581-1.986c1.485-0.646,2.972-1.29,4.441-1.968
		c0.208-0.096,0.326-0.378,0.487-0.573c-0.232-0.103-0.459-0.28-0.695-0.293c-0.707-0.039-1.421,0.037-2.126-0.023
		c-1.283-0.108-2.37,0.156-3.363,1.076c-1.284,1.191-2.696,2.246-4.09,3.389C272.654,40.316,272.859,40.41,273.29,40.216" fill="#C21B17"></path>
<path d="M349.835,62.514c0.829-2.071,1.293-4.414,1.397-7.029c0-2.226-0.259-4.109-0.775-5.65
		c-0.519-1.54-1.165-2.816-1.942-3.824c-0.774-1.01-1.626-1.787-2.543-2.331c-0.92-0.544-1.787-0.952-2.602-1.224
		c-0.817-0.271-1.521-0.433-2.116-0.485c-0.597-0.052-0.945-0.077-1.05-0.077h-0.076c-0.104,0-0.462,0.025-1.068,0.077
		c-0.608,0.052-1.327,0.214-2.154,0.485c-0.828,0.272-1.709,0.679-2.641,1.224c-0.933,0.544-1.8,1.32-2.602,2.331
		c-0.803,1.008-1.464,2.284-1.98,3.824c-0.519,1.541-0.777,3.424-0.777,5.65c0.104,2.615,0.569,4.958,1.398,7.029
		c0.361,0.88,0.808,1.741,1.339,2.582c0.531,0.842,1.191,1.593,1.981,2.252c0.789,0.66,1.714,1.19,2.776,1.592
		c1.061,0.401,2.292,0.602,3.688,0.602c1.397,0,2.628-0.201,3.688-0.602c1.062-0.401,1.98-0.932,2.758-1.592
		c0.776-0.66,1.435-1.411,1.979-2.252C349.059,64.255,349.499,63.394,349.835,62.514 M346.167,60.689
		c-0.272,1.424-0.622,2.609-1.05,3.553c-0.427,0.945-0.893,1.682-1.398,2.212c-0.505,0.531-0.996,0.926-1.476,1.185
		s-0.898,0.42-1.261,0.484c-0.363,0.065-0.621,0.099-0.778,0.099h-0.231c-0.132,0-0.382-0.033-0.758-0.099
		c-0.375-0.064-0.803-0.226-1.28-0.484c-0.48-0.259-0.979-0.654-1.496-1.185c-0.519-0.53-0.99-1.267-1.418-2.212
		c-0.428-0.944-0.776-2.129-1.048-3.553c-0.271-1.423-0.407-3.158-0.407-5.204c0-2.044,0.136-3.772,0.407-5.184
		s0.62-2.588,1.048-3.534c0.428-0.944,0.899-1.682,1.418-2.214c0.518-0.53,1.01-0.924,1.475-1.184
		c0.468-0.259,0.888-0.42,1.264-0.486c0.374-0.063,0.64-0.096,0.796-0.096h0.231c0.157,0,0.421,0.032,0.797,0.096
		c0.375,0.066,0.796,0.228,1.262,0.486c0.467,0.259,0.951,0.654,1.456,1.184c0.506,0.532,0.972,1.27,1.398,2.214
		c0.428,0.945,0.777,2.13,1.05,3.553c0.271,1.424,0.406,3.145,0.406,5.164C346.574,57.531,346.438,59.266,346.167,60.689" fill="#C21B17"></path>
<path d="M351.426,68.151v1.328h17.778V59.292h-1.002c-0.993,7.704-2.946,8.858-8.424,8.858h-0.331V43.222h3.482
		v-1.343h-11.457v1.343h3.485v24.929H351.426" fill="#C21B17"></path>
<path d="M401.427,40.214c0.162,0.112,0.525,0.133,0.679,0.027c2.09-1.458,4.161-2.943,6.231-4.419
		c-0.121-0.568-0.495-0.362-0.792-0.274c-1.63,0.478-3.263,0.943-4.875,1.475c-0.615,0.202-1.156,0.185-1.758-0.009
		c-1.638-0.527-3.288-1.01-4.935-1.505c-0.315-0.095-0.672-0.248-0.718,0.3c0.669,0.478,1.289,0.915,1.904,1.358
		C398.583,38.186,399.995,39.218,401.427,40.214" fill="#C21B17"></path>
<path d="M409.793,62.884c-0.297,0.75-0.641,1.404-1.029,1.96c-0.387,0.556-0.809,1.029-1.26,1.417
		c-0.454,0.388-0.9,0.698-1.34,0.932c-1.034,0.568-2.16,0.892-3.378,0.971h-0.115c-0.13,0-0.384-0.033-0.757-0.099
		c-0.377-0.065-0.802-0.225-1.282-0.484c-0.479-0.26-0.977-0.653-1.492-1.184c-0.52-0.53-0.991-1.261-1.418-2.193
		c-0.426-0.931-0.777-2.108-1.048-3.533c-0.272-1.422-0.407-3.144-0.407-5.162c0-2.096,0.142-3.862,0.426-5.298
		c0.283-1.436,0.654-2.633,1.106-3.59c0.452-0.957,0.946-1.701,1.476-2.232c0.53-0.53,1.035-0.924,1.515-1.183
		c0.478-0.259,0.897-0.414,1.26-0.467c0.363-0.051,0.596-0.077,0.7-0.077h0.037c0.959,0,1.807,0.122,2.544,0.368
		c0.736,0.247,1.377,0.57,1.92,0.971c0.546,0.402,1.004,0.861,1.379,1.379c0.375,0.517,0.692,1.047,0.95,1.591
		c0.597,1.268,0.945,2.704,1.049,4.309h0.776v-9.744l-3.067,2.291c-0.311-0.491-0.724-0.874-1.241-1.145
		c-0.519-0.272-1.043-0.479-1.572-0.622c-0.531-0.141-1.022-0.232-1.475-0.271c-0.453-0.038-0.797-0.058-1.028-0.058h-0.271
		c-0.104,0-0.448,0.026-1.029,0.077c-0.583,0.053-1.28,0.214-2.097,0.486c-0.814,0.271-1.688,0.686-2.62,1.243
		c-0.931,0.557-1.791,1.345-2.581,2.367c-0.789,1.022-1.443,2.316-1.959,3.881c-0.518,1.566-0.776,3.475-0.776,5.726
		c0.102,2.562,0.569,4.852,1.397,6.87c0.361,0.854,0.809,1.695,1.338,2.524c0.531,0.828,1.184,1.564,1.96,2.212
		c0.776,0.646,1.688,1.169,2.737,1.571c1.048,0.401,2.271,0.602,3.667,0.602c1.012,0,1.908-0.13,2.699-0.387
		c0.789-0.259,1.481-0.602,2.075-1.029c0.596-0.427,1.106-0.905,1.535-1.436c0.426-0.531,0.795-1.081,1.105-1.65
		c0.698-1.32,1.163-2.82,1.396-4.502h-1.125C410.318,61.268,410.09,62.134,409.793,62.884" fill="#C21B17"></path>
<path d="M389.083,64.56c-0.461,1.143-0.965,1.976-1.517,2.501c-0.655,0.629-1.392,0.984-2.206,1.063h-6.971V56.113
		h2.245c0.865,0.13,1.536,0.492,2.008,1.083c0.474,0.591,0.828,1.214,1.064,1.87c0.288,0.763,0.46,1.615,0.512,2.56h0.591V49.457
		h-0.591c-0.105,0.893-0.304,1.72-0.59,2.48c-0.263,0.658-0.638,1.268-1.125,1.832c-0.484,0.565-1.162,0.913-2.025,1.044h-2.089
		V43.234h6.42c0.814,0.079,1.548,0.432,2.206,1.063c0.551,0.525,1.056,1.359,1.516,2.501c0.459,1.142,0.688,2.764,0.688,4.864h0.553
		v-9.767h-19.063v1.339h3.428v24.89h-3.428v1.339h19.85v-9.767h-0.786C389.772,61.797,389.542,63.418,389.083,64.56" fill="#C21B17"></path>
<path d="M477.934,60.099c0-0.26-0.046-0.724-0.139-1.389c-0.092-0.665-0.346-1.388-0.763-2.17
		c-0.416-0.782-1.057-1.538-1.917-2.269c-0.859-0.73-2.046-1.291-3.559-1.682l-5.202-1.329c-0.68-0.21-1.278-0.497-1.801-0.863
		c-0.443-0.312-0.859-0.71-1.253-1.192c-0.39-0.482-0.585-1.088-0.585-1.818c0.078-0.887,0.338-1.682,0.783-2.386
		c0.364-0.6,0.938-1.148,1.721-1.643c0.782-0.496,1.876-0.743,3.286-0.743c1.224,0.078,2.319,0.378,3.286,0.899
		c0.416,0.235,0.821,0.522,1.212,0.86c0.391,0.341,0.742,0.75,1.056,1.232c0.313,0.483,0.561,1.063,0.742,1.742
		c0.184,0.678,0.276,1.459,0.276,2.346h0.742v-8.058l-2.308,1.721c-0.443-0.443-0.951-0.775-1.525-0.998
		c-0.574-0.221-1.123-0.397-1.644-0.528c-0.601-0.13-1.212-0.196-1.838-0.196c-0.861,0-1.76,0.175-2.7,0.528
		c-0.938,0.353-1.793,0.874-2.563,1.564c-0.769,0.69-1.401,1.552-1.896,2.582c-0.495,1.031-0.743,2.224-0.743,3.579
		c0,1.356,0.274,2.458,0.821,3.306c0.547,0.848,1.147,1.52,1.8,2.014c0.756,0.573,1.617,0.992,2.581,1.251l5.751,1.33
		c0.99,0.262,1.752,0.646,2.287,1.153c0.535,0.509,0.939,1.037,1.212,1.585c0.275,0.547,0.439,1.043,0.491,1.486
		c0.052,0.444,0.076,0.743,0.076,0.9v0.078c0,0.887-0.142,1.65-0.428,2.289c-0.289,0.638-0.653,1.16-1.097,1.564
		c-0.443,0.404-0.933,0.723-1.466,0.957c-0.536,0.235-1.051,0.411-1.546,0.528c-0.495,0.118-0.933,0.191-1.311,0.216
		c-0.378,0.026-0.645,0.039-0.802,0.039h-0.118c-1.017,0-1.91-0.124-2.678-0.372c-0.771-0.247-1.437-0.567-1.997-0.958
		c-0.56-0.39-1.035-0.84-1.426-1.349c-0.392-0.509-0.72-1.023-0.979-1.545c-0.6-1.251-0.938-2.66-1.016-4.225h-0.743v9.074
		l2.698-1.956c0.625,0.575,1.305,1.025,2.034,1.35c0.729,0.327,1.396,0.554,1.996,0.685c0.704,0.157,1.407,0.248,2.11,0.275h0.157
		c0.208,0,0.567-0.02,1.076-0.06c0.509-0.04,1.094-0.157,1.76-0.352c0.664-0.195,1.356-0.489,2.074-0.881
		c0.715-0.391,1.368-0.932,1.954-1.623c0.588-0.69,1.076-1.551,1.469-2.582c0.392-1.029,0.587-2.288,0.587-3.775V60.099z" fill="#C21B17"></path>
<path d="M457.121,62.45c0.823-2.057,1.288-4.385,1.39-6.984c0-2.211-0.258-4.083-0.772-5.614
		c-0.514-1.529-1.156-2.798-1.928-3.799c-0.772-1.004-1.614-1.775-2.527-2.315c-0.913-0.541-1.775-0.944-2.585-1.216
		c-0.811-0.27-1.512-0.431-2.104-0.482c-0.591-0.05-0.938-0.077-1.041-0.077h-0.077c-0.103,0-0.456,0.026-1.063,0.077
		c-0.603,0.052-1.317,0.213-2.139,0.482c-0.824,0.271-1.698,0.675-2.625,1.216c-0.926,0.54-1.788,1.312-2.584,2.315
		c-0.798,1.001-1.453,2.27-1.968,3.799c-0.516,1.531-0.773,3.403-0.773,5.614c0.104,2.599,0.565,4.927,1.39,6.984
		c0.361,0.875,0.803,1.729,1.331,2.566c0.526,0.835,1.184,1.581,1.968,2.237c0.784,0.655,1.705,1.183,2.759,1.582
		c1.055,0.398,2.275,0.598,3.666,0.598c1.388,0,2.61-0.2,3.665-0.598c1.054-0.399,1.967-0.927,2.739-1.582
		c0.772-0.656,1.427-1.401,1.968-2.237C456.35,64.18,456.786,63.325,457.121,62.45 M453.476,60.637
		c-0.271,1.414-0.618,2.591-1.042,3.529c-0.424,0.94-0.889,1.672-1.389,2.201c-0.502,0.527-0.99,0.918-1.466,1.176
		c-0.478,0.257-0.895,0.418-1.254,0.481c-0.361,0.065-0.618,0.098-0.772,0.098h-0.232c-0.128,0-0.378-0.032-0.75-0.098
		c-0.375-0.063-0.798-0.225-1.273-0.481c-0.478-0.258-0.973-0.649-1.487-1.176c-0.515-0.528-0.982-1.26-1.407-2.201
		c-0.426-0.938-0.771-2.115-1.041-3.529c-0.271-1.415-0.405-3.138-0.405-5.171c0-2.031,0.134-3.748,0.405-5.15
		c0.27-1.402,0.615-2.572,1.041-3.511c0.425-0.938,0.893-1.672,1.407-2.2c0.515-0.527,1.003-0.919,1.468-1.177
		c0.462-0.257,0.88-0.417,1.252-0.482c0.375-0.063,0.638-0.096,0.791-0.096h0.232c0.154,0,0.418,0.033,0.791,0.096
		c0.373,0.065,0.789,0.226,1.254,0.482c0.463,0.258,0.945,0.649,1.447,1.177c0.5,0.528,0.965,1.262,1.389,2.2
		c0.424,0.939,0.771,2.115,1.042,3.53c0.27,1.416,0.405,3.125,0.405,5.131C453.881,57.499,453.746,59.223,453.476,60.637" fill="#C21B17"></path>
<path d="M477.934,51.602h0.591c0-2.126,0.234-3.767,0.708-4.922c0.472-1.156,0.983-1.996,1.536-2.521
		c0.655-0.63,1.391-0.986,2.206-1.063h3.661v25.047h-3.466v1.339h11.343v-1.339h-3.425V43.096h3.031
		c0.788,0.078,1.497,0.433,2.127,1.063c0.524,0.525,1.01,1.365,1.458,2.521c0.445,1.155,0.668,2.796,0.668,4.922h0.788v-9.688
		h-21.227V51.602z" fill="#C21B17"></path>
<path d="M412.917,43.079h0.325c0,0,4.175,0.024,4.175,2.717V66.59c-0.264,0.683-0.663,1.117-1.202,1.299
		c-0.537,0.184-0.99,0.276-1.358,0.276c-0.053,0-0.112-0.007-0.176-0.021c-0.067-0.013-0.125-0.019-0.178-0.019h-0.119v1.339h7.287
		v-1.339h-0.158c-0.054,0-0.111,0.006-0.178,0.019c-0.065,0.014-0.137,0.021-0.215,0.021c-0.185,0-0.408-0.021-0.671-0.06
		c-0.264-0.039-0.519-0.11-0.767-0.216c-0.251-0.105-0.474-0.261-0.671-0.472c-0.197-0.21-0.335-0.485-0.413-0.827V47.685
		l14.335,21.78h1.301V44.767c0.156-0.367,0.373-0.655,0.649-0.865c0.276-0.211,0.564-0.367,0.866-0.473
		c0.3-0.104,0.577-0.17,0.827-0.197c0.249-0.027,0.438-0.039,0.57-0.039h0.158v-1.3h-7.442v1.3h0.196
		c0.156,0,0.386,0.012,0.689,0.039c0.302,0.026,0.616,0.092,0.944,0.197c0.329,0.106,0.631,0.262,0.905,0.473
		c0.276,0.21,0.453,0.498,0.532,0.865V61.43l-13.247-19.533l-6.642-0.004v0.004h-0.325V43.079z" fill="#C21B17"></path>
<path d="M159.858,28.375h-2.538V16.262h1.473c2.455,0.06,3.855,1.493,4.359,5.722h0.903l-0.009-12.527
		c-0.018,0.025-0.889,0-0.889,0c0,0.064-0.174,5.387-4.475,5.311h-1.362l0.015-11.328c7.103,0,9.712-0.358,10.948,8.353h0.75V2.098
		l-19.34,0.007v1.333h3.349v24.933h-3.691v1.313h19.931V19.498h-0.998C167.291,27.203,165.337,28.375,159.858,28.375" fill="#C21B17"></path>
<path d="M137.259,29.794c2.752,0,4.694-1.401,5.733-2.994c0.011-0.036,3.472,2.732,3.484,2.742V16.359h2.942v-1.237
		h-10.912v1.237h3.736v8.969c-0.631,2.276-3.986,3.227-4.984,3.227c-6.971,0-6.473-10.197-6.473-12.927
		c0-2.496-0.25-12.936,6.473-12.936c4.732,0,7.225,4.715,8.224,8.954h0.756c0-1.746,0.029-10.047,0.011-10.028
		c0.018-0.065-3.247,2.345-3.258,2.305c0.072-0.014-1.49-2.231-5.733-2.231c-8.227,0-11.242,8.208-11.219,13.937
		C126.08,20.867,128.496,29.794,137.259,29.794" fill="#C21B17"></path>
<path d="M245.478,28.395c-0.373,0-2.84,0.073-2.992-1.644c-0.104-1.242,1.623-5.704,1.623-5.704h9.16
		c-0.004-0.016,2.849,7.353,2.874,7.353h-3.195v1.323h24.955V19.536H276.9c-0.994,7.705-2.945,8.858-8.422,8.858h-0.334V3.466h3.483
		V2.123h-11.455v1.344h3.485v24.928h-2.769L250.705,1.377h-1.494c0.032-0.014-8.46,24.513-8.479,24.585
		c0.019-0.072-0.641,2.106-2.04,2.377c-1.289,0.061-1.19-0.611-1.19-0.847v-4.726c0-1.238-0.099-4.057-1.387-5.35
		c-1.44-1.453-3.909-1.562-3.853-1.618c0,0,6.26-1.291,6.26-7.241c0-4.172-2.902-6.248-7.749-6.429h-13.759v1.342h3.518v24.929
		h-3.518v1.323H228.3v-1.323h-3.519V16.415h4.694c8.144,0.671-1.399,13.324,9.274,13.308h6.729V28.395z M248.708,7.851l4.238,11.921
		h-8.217L248.708,7.851z M229.276,15.013h-4.477V3.46h5.725c3.359,0.509,3.498,4.391,3.498,5.626
		C234.022,12.074,232.771,15.013,229.276,15.013" fill="#C21B17"></path>
<path d="M175.468,5.633v20.378c0,1.987-2.975,2.744-4.221,2.744h-0.012v0.987h9.717v-0.987
		c-1.243,0-4.239-0.757-4.239-2.744l0.032-17.941c5.223,7.463,15.079,21.689,15.172,21.672h0.49V5.633
		c0.138-2.079,2.499-2.154,3.495-2.154h3.237v24.95h-3.691v1.313h19.931V19.555h-0.998c-0.993,7.705-2.944,8.876-8.426,8.876h-2.538
		V16.318h1.47c2.46,0.06,3.858,1.493,4.358,5.722h0.908l-0.011-12.527c-0.017,0.025-0.887,0-0.887,0
		c0,0.063-0.178,5.386-4.474,5.311h-1.365V3.479c7.101,0,9.727-0.34,10.964,8.37h0.75V2.155h-28.203v1.324h0.738
		c0.993,0,3.356,0.075,3.489,2.154h-0.001v15.905l-13.19-19.383h-7.183v1.324h1.195C173.394,3.479,175.378,3.542,175.468,5.633" fill="#C21B17"></path>
<polygon fill="#C21B17" points="290.775,28.358 287.237,28.358 287.237,3.402 290.775,3.402 290.775,2.054 279.51,2.054 
		279.51,3.402 283.044,3.402 283.057,28.358 279.51,28.358 279.51,29.701 290.775,29.701 	"></polygon>
</g>
</svg>